<?xml version="1.0" encoding="UTF-8" standalone="no"?>
<svg
   xmlns:dc="http://purl.org/dc/elements/1.1/"
   xmlns:cc="http://creativecommons.org/ns#"
   xmlns:rdf="http://www.w3.org/1999/02/22-rdf-syntax-ns#"
   xmlns:svg="http://www.w3.org/2000/svg"
   xmlns="http://www.w3.org/2000/svg"
   xmlns:sodipodi="http://sodipodi.sourceforge.net/DTD/sodipodi-0.dtd"
   xmlns:inkscape="http://www.inkscape.org/namespaces/inkscape"
   version="1.0"
   width="185"
   height="40"
   id="svg4177"
   sodipodi:docname="Uni_Kassel-Logo.svg"
   inkscape:export-filename="C:\Users\alexa\Documents\GitHub\DigitalTwinInjectionMoulding\Präsentationen\Uni_Kassel-Logo.png"
   inkscape:export-xdpi="299"
   inkscape:export-ydpi="299"
   inkscape:version="1.0.1 (3bc2e813f5, 2020-09-07)">
  <metadata
     id="metadata27">
    <rdf:RDF>
      <cc:Work
         rdf:about="">
        <dc:format>image/svg+xml</dc:format>
        <dc:type
           rdf:resource="http://purl.org/dc/dcmitype/StillImage" />
      </cc:Work>
    </rdf:RDF>
  </metadata>
  <sodipodi:namedview
     pagecolor="#ffffff"
     bordercolor="#666666"
     borderopacity="1"
     objecttolerance="10"
     gridtolerance="10"
     guidetolerance="10"
     inkscape:pageopacity="0"
     inkscape:pageshadow="2"
     inkscape:window-width="1920"
     inkscape:window-height="1017"
     id="namedview25"
     showgrid="false"
     inkscape:zoom="0.48398592"
     inkscape:cx="-569.88805"
     inkscape:cy="-284.48836"
     inkscape:window-x="-8"
     inkscape:window-y="-8"
     inkscape:window-maximized="1"
     inkscape:current-layer="svg4177"
     inkscape:document-rotation="0" />
  <defs
     id="defs4179" />
  <g
     transform="matrix(1.25,0,0,1.25,-440.31982,-63.38867)"
     id="g4156">
    <path
       d="m 359.25391,77.914062 h -0.0274 l -2.07812,-6.675781 h -2.82032 l 3.25391,9.214844 h 3.05078 l 3.35547,-9.214844 h -2.53906 l -2.19531,6.675781"
       id="path763"
       style="fill:#c50259;fill-opacity:1;fill-rule:nonzero;stroke:none" />
    <path
       d="m 383.00391,80.453125 v -1.789063 h -4.46875 v -1.949218 h 4.10937 v -1.789063 h -4.10937 v -1.898437 h 4.46875 v -1.789063 h -7.01954 v 9.214844 h 7.01954"
       id="path765"
       style="fill:#c50259;fill-opacity:1;fill-rule:nonzero;stroke:none" />
    <path
       d="m 397.58594,75.144531 v -2.117187 h 0.99609 c 0.81641,0 1.60547,0.113281 1.60547,1.058594 0,0.941406 -0.78906,1.058593 -1.60547,1.058593 z m 0,1.789063 h 0.95703 c 1.30078,0 1.35156,0.457031 1.45312,1.570312 0.0664,0.648438 0.14454,1.3125 0.28125,1.949219 h 2.77344 c -0.21875,-0.738281 -0.35937,-1.464844 -0.42187,-2.234375 -0.16797,-1.429688 -0.47266,-2.257812 -2.10547,-2.296875 v -0.05078 c 1.28906,-0.152344 2.34765,-0.878906 2.34765,-2.257813 0,-1.953125 -2.01953,-2.375 -3.57422,-2.375 h -4.26171 v 9.214844 h 2.55078 v -3.519531"
       id="path767"
       style="fill:#c50259;fill-opacity:1;fill-rule:evenodd;stroke:none" />
    <path
       d="m 422.61719,73.941406 c 0.15625,-2.21875 -1.79688,-2.894531 -3.69922,-2.894531 -1.92969,0 -3.84375,0.601563 -3.94531,2.78125 0,0.996094 0.46093,1.839844 1.39062,2.246094 2.00391,0.882812 3.89453,0.613281 3.89453,1.863281 0,0.613281 -0.7539,0.921875 -1.33984,0.921875 -0.91797,0 -1.55859,-0.472656 -1.54688,-1.339844 h -2.55078 c 0.0391,2.5 1.92578,3.125 4.07031,3.125 2.13282,0 4.04688,-0.917969 4.04688,-2.859375 0,-2.488281 -2.24609,-2.640625 -3.78906,-3.039062 -0.67578,-0.175782 -1.4961,-0.394532 -1.4961,-1.070313 0,-0.460937 0.51172,-0.839843 1.09766,-0.839843 0.43359,0 0.76562,0.101562 0.98437,0.292968 0.23047,0.191406 0.34375,0.457032 0.33204,0.8125 h 2.55078"
       id="path769"
       style="fill:#c50259;fill-opacity:1;fill-rule:nonzero;stroke:none" />
    <path
       d="m 435.19141,80.453125 h 2.55078 v -9.214844 h -2.55078 z"
       id="path771"
       style="fill:#c50259;fill-opacity:1;fill-rule:nonzero;stroke:none" />
    <path
       d="m 452.40234,80.453125 h 2.5586 v -7.425781 h 2.88281 v -1.789063 h -8.25 v 1.789063 h 2.80859 v 7.425781"
       id="path773"
       style="fill:#c50259;fill-opacity:1;fill-rule:nonzero;stroke:none" />
    <path
       d="m 471.24219,80.453125 0.60156,-1.800781 h 3.73828 l 0.60938,1.800781 h 2.89062 l -3.64062,-9.214844 h -3.1211 l -3.6289,9.214844 z m 1.25,-3.585937 1.25,-3.828126 h 0.0391 l 1.17187,3.828126 h -2.46093"
       id="path775"
       style="fill:#c50259;fill-opacity:1;fill-rule:evenodd;stroke:none" />
    <path
       d="m 492.74219,80.453125 h 2.55078 v -7.425781 h 2.89062 v -1.789063 h -8.26172 v 1.789063 h 2.82032 v 7.425781"
       id="path777"
       style="fill:#c50259;fill-opacity:1;fill-rule:nonzero;stroke:none" />
    <path
       d="m 361.35938,52.972656 v 5.703125 c -0.0391,1.175781 -0.64844,1.917969 -1.85157,1.917969 -1.19922,0 -1.8125,-0.742188 -1.84765,-1.917969 v -5.703125 h -2.55469 v 5.832032 c 0.0234,2.566406 2.08203,3.574218 4.40234,3.574218 2.32422,0 4.37891,-1.007812 4.40625,-3.574218 v -5.832032 h -2.55468"
       id="path779"
       style="fill:#c50259;fill-opacity:1;fill-rule:nonzero;stroke:none" />
    <path
       d="m 375.37891,62.1875 h 2.30078 v -7.058594 h 0.0234 L 380.832,62.1875 h 3.53516 v -9.214844 h -2.29688 V 59.8125 l -0.0273,0.02344 -3.08985,-6.863282 h -3.57421 V 62.1875"
       id="path781"
       style="fill:#c50259;fill-opacity:1;fill-rule:nonzero;stroke:none" />
    <path
       d="m 396.92969,62.1875 h 2.55078 v -9.214844 h -2.55078 z"
       id="path783"
       style="fill:#c50259;fill-opacity:1;fill-rule:nonzero;stroke:none" />
    <path
       d="m 467.12109,72.410156 h 2.28907 v -2.042968 h -2.28907 z"
       id="path785"
       style="fill:#c50259;fill-opacity:1;fill-rule:nonzero;stroke:none" />
    <path
       d="m 478.42187,72.410156 h 2.28907 v -2.042968 h -2.28907 z"
       id="path787"
       style="fill:#c50259;fill-opacity:1;fill-rule:nonzero;stroke:none" />
    <path
       d="m 412.77344,62.1875 v -4.890625 l 4.2539,4.890625 h 1.79688 l -4.58203,-5.09375 4.125,-4.121094 h -1.75 l -3.84375,3.992188 V 52.972656 H 411.5 V 62.1875 h 1.27344"
       id="path789"
       style="fill:#211e1e;fill-opacity:1;fill-rule:nonzero;stroke:none" />
    <path
       d="m 427.96094,62.1875 0.99218,-2.402344 h 4.27735 l 1,2.402344 h 1.39062 l -3.73047,-9.214844 h -1.36718 l -3.88281,9.214844 z m 3.1914,-7.953125 1.66797,4.453125 h -3.42969 l 1.76172,-4.453125"
       id="path791"
       style="fill:#211e1e;fill-opacity:1;fill-rule:evenodd;stroke:none" />
    <path
       d="m 444.16016,59.492188 c -0.0469,2.070312 1.35156,2.886718 3.28125,2.886718 1.85937,0 3.74218,-0.742187 3.74218,-2.835937 0,-2.320313 -2.3125,-2.320313 -4.01171,-2.871094 -0.80079,-0.253906 -1.53907,-0.320313 -1.53907,-1.367187 0,-1.09375 1.23047,-1.425782 2.14063,-1.425782 0.91797,0 1.78906,0.355469 1.83984,1.390625 h 1.33984 c 0,-1.789062 -1.55078,-2.492187 -3.12109,-2.492187 -1.71875,0 -3.53906,0.742187 -3.53906,2.746094 0,2.066406 2.51953,2.410156 4.03906,2.742187 0.76953,0.15625 1.51172,0.523437 1.51172,1.417969 0,1.289062 -1.28125,1.597656 -2.32031,1.597656 -1.24219,0 -2,-0.484375 -2.01953,-1.789062 h -1.34375"
       id="path793"
       style="fill:#211e1e;fill-opacity:1;fill-rule:nonzero;stroke:none" />
    <path
       d="m 460.36328,59.492188 c -0.0508,2.070312 1.35938,2.886718 3.27735,2.886718 1.87109,0 3.74999,-0.742187 3.74999,-2.835937 0,-2.320313 -2.32031,-2.320313 -4.00781,-2.871094 -0.8125,-0.253906 -1.55078,-0.320313 -1.55078,-1.367187 0,-1.09375 1.23828,-1.425782 2.14844,-1.425782 0.91015,0 1.78125,0.355469 1.83203,1.390625 h 1.34766 c 0,-1.789062 -1.54688,-2.492187 -3.11719,-2.492187 -1.72266,0 -3.55078,0.742187 -3.55078,2.746094 0,2.066406 2.53125,2.410156 4.05078,2.742187 0.75781,0.15625 1.5,0.523437 1.5,1.417969 0,1.289062 -1.26953,1.597656 -2.32031,1.597656 -1.24219,0 -1.99219,-0.484375 -2.01172,-1.789062 h -1.34766"
       id="path795"
       style="fill:#211e1e;fill-opacity:1;fill-rule:nonzero;stroke:none" />
    <path
       d="m 482.74219,62.1875 v -1.097656 h -4.60938 v -3.050782 h 4.28906 v -1.097656 h -4.28906 v -2.875 h 4.5 v -1.09375 h -5.78125 V 62.1875 h 5.89063"
       id="path797"
       style="fill:#211e1e;fill-opacity:1;fill-rule:nonzero;stroke:none" />
    <path
       d="m 498.17188,62.1875 v -1.097656 h -4.28907 v -8.117188 h -1.28125 V 62.1875 h 5.57032"
       id="path799"
       style="fill:#211e1e;fill-opacity:1;fill-rule:nonzero;stroke:none" />
  </g>
</svg>
